<svg width="64" height="64" viewBox="0 0 64 64" fill="none" xmlns="http://www.w3.org/2000/svg">
  <circle cx="32" cy="32" r="28" fill="#22c55e" stroke="#16a34a" stroke-width="2"/>
  <path d="M32 8c-4 8-8 12-8 16 0 4.418 3.582 8 8 8s8-3.582 8-8c0-4-4-8-8-16z" fill="#ffffff"/>
  <path d="M20 36c0 6.627 5.373 12 12 12s12-5.373 12-12" stroke="#ffffff" stroke-width="2" stroke-linecap="round"/>
  <path d="M24 40c2.667 2.667 5.333 4 8 4s5.333-1.333 8-4" stroke="#ffffff" stroke-width="2" stroke-linecap="round"/>
  <circle cx="26" cy="20" r="2" fill="#ffffff"/>
  <circle cx="38" cy="20" r="2" fill="#ffffff"/>
  <path d="M16 20c2-2 4-2 6 0M42 20c2-2 4-2 6 0" stroke="#ffffff" stroke-width="2" stroke-linecap="round"/>
</svg>