<svg width="48" height="48" viewBox="0 0 48 48" fill="none" xmlns="http://www.w3.org/2000/svg">
  <!-- Minimalistic Sustainable/Leaf Icon -->
  <path d="M24 8c8 0 16 8 16 16 0 8-8 16-16 16-8 0-16-8-16-16 0-8 8-16 16-16z" stroke="#374151" stroke-width="2" fill="none"/>
  <!-- Leaf shape -->
  <path d="M18 24c0-6 4-10 10-10s10 4 10 10c0 6-4 10-10 10" stroke="#6b7280" stroke-width="2" fill="none" stroke-linecap="round"/>
  <!-- Leaf vein -->
  <path d="M24 18v12" stroke="#6b7280" stroke-width="1.5" stroke-linecap="round"/>
  <!-- Small leaves -->
  <path d="M20 22c2-2 4-2 6 0" stroke="#9ca3af" stroke-width="1" stroke-linecap="round"/>
  <path d="M22 26c2-1 3-1 4 0" stroke="#9ca3af" stroke-width="1" stroke-linecap="round"/>
</svg>